<?xml version="1.0" encoding="utf-8"?>
<!-- Generator: Adobe Illustrator 26.2.1, SVG Export Plug-In . SVG Version: 6.00 Build 0)  -->
<svg version="1.1" id="Layer_1" xmlns="http://www.w3.org/2000/svg" xmlns:xlink="http://www.w3.org/1999/xlink" x="0px" y="0px"
	 viewBox="0 0 74 74" style="enable-background:new 0 0 74 74;" xml:space="preserve">
<style type="text/css">
	.st0{clip-path:url(#SVGID_00000163774529456113078900000001474414686974602629_);fill:#1D1D1B;}
	.st1{clip-path:url(#SVGID_00000163774529456113078900000001474414686974602629_);fill:#FFFFFF;}
	.st2{fill:#FFFFFF;}
	.st3{clip-path:url(#SVGID_00000127760947140584387700000005496345938098174379_);fill:#FFFFFF;}
	.st4{clip-path:url(#SVGID_00000140712970682374157920000003514966089666267268_);fill:#FFFFFF;}
	.st5{fill:none;stroke:#1D1D1B;}
</style>
<g>
	<defs>
		<rect id="SVGID_1_" width="74" height="74"/>
	</defs>
	<clipPath id="SVGID_00000080911715345144986870000015167635534159978169_">
		<use xlink:href="#SVGID_1_"  style="overflow:visible;"/>
	</clipPath>
	<path style="clip-path:url(#SVGID_00000080911715345144986870000015167635534159978169_);fill:#1D1D1B;" d="M4,0C1.8,0,0,1.8,0,4
		v66c0,2.2,1.8,4,4,4h66c2.2,0,4-1.8,4-4V4c0-2.2-1.8-4-4-4H4z"/>
	<path style="clip-path:url(#SVGID_00000080911715345144986870000015167635534159978169_);fill:#FFFFFF;" d="M5.2,2.5
		c-1.5,0-2.7,1.2-2.7,2.7v18.3h33v-21H5.2z"/>
</g>
<rect x="2.5" y="26.5" class="st2" width="33" height="21"/>
<g>
	<defs>
		<rect id="SVGID_00000181087768972522895420000004279394360900507538_" width="74" height="74"/>
	</defs>
	<clipPath id="SVGID_00000030454422079984657220000007960702720586398645_">
		<use xlink:href="#SVGID_00000181087768972522895420000004279394360900507538_"  style="overflow:visible;"/>
	</clipPath>
	<path style="clip-path:url(#SVGID_00000030454422079984657220000007960702720586398645_);fill:#FFFFFF;" d="M2.5,50.5v19
		c0,1.1,0.9,2,2,2h31v-21H2.5z"/>
	<path style="clip-path:url(#SVGID_00000030454422079984657220000007960702720586398645_);fill:#FFFFFF;" d="M38.5,2.5v21h33v-19
		c0-1.1-0.9-2-2-2H38.5z"/>
</g>
<rect x="38.5" y="26.5" class="st2" width="33" height="21"/>
<g>
	<defs>
		<rect id="SVGID_00000178179636847369065670000017812934104287365555_" width="74" height="74"/>
	</defs>
	<clipPath id="SVGID_00000022549218454725873290000006813683789030773657_">
		<use xlink:href="#SVGID_00000178179636847369065670000017812934104287365555_"  style="overflow:visible;"/>
	</clipPath>
	<path style="clip-path:url(#SVGID_00000022549218454725873290000006813683789030773657_);fill:#FFFFFF;" d="M38.5,50.5v21h31
		c1.1,0,2-0.9,2-2v-19H38.5z"/>
</g>
<line class="st5" x1="38.5" y1="13" x2="71.5" y2="13"/>
<line class="st5" x1="49.3" y1="2.5" x2="49.3" y2="23.5"/>
<line class="st5" x1="60.6" y1="2.5" x2="60.6" y2="23.5"/>
<line class="st5" x1="38.5" y1="37" x2="71.5" y2="37"/>
<line class="st5" x1="49.3" y1="26.5" x2="49.3" y2="47.5"/>
<line class="st5" x1="60.6" y1="26.5" x2="60.6" y2="47.5"/>
<line class="st5" x1="38.5" y1="61" x2="71.5" y2="61"/>
<line class="st5" x1="49.3" y1="50.5" x2="49.3" y2="71.5"/>
<line class="st5" x1="60.6" y1="50.5" x2="60.6" y2="71.5"/>
<line class="st5" x1="2.5" y1="13" x2="35.5" y2="13"/>
<line class="st5" x1="13.3" y1="2.5" x2="13.3" y2="23.5"/>
<line class="st5" x1="24.6" y1="2.5" x2="24.6" y2="23.5"/>
<line class="st5" x1="2.5" y1="37" x2="35.5" y2="37"/>
<line class="st5" x1="13.3" y1="26.5" x2="13.3" y2="47.5"/>
<line class="st5" x1="24.6" y1="26.5" x2="24.6" y2="47.5"/>
<line class="st5" x1="2.5" y1="61" x2="35.5" y2="61"/>
<line class="st5" x1="13.3" y1="50.5" x2="13.3" y2="71.5"/>
<line class="st5" x1="24.6" y1="50.5" x2="24.6" y2="71.5"/>
</svg>
