<?xml version="1.0" encoding="utf-8"?>
<!-- Generator: Adobe Illustrator 26.2.0, SVG Export Plug-In . SVG Version: 6.00 Build 0)  -->
<svg version="1.1" id="Layer_1" xmlns="http://www.w3.org/2000/svg" xmlns:xlink="http://www.w3.org/1999/xlink" x="0px" y="0px"
	 viewBox="0 0 100 100" style="enable-background:new 0 0 100 100;" xml:space="preserve">
<style type="text/css">
	.st0{clip-path:url(#SVGID_00000116945854921813547760000015963606002002675646_);}
	.st1{clip-path:url(#SVGID_00000116945854921813547760000015963606002002675646_);fill:#FFFFFF;}
	.st2{fill:#FFFFFF;}
	.st3{clip-path:url(#SVGID_00000170255601384243727210000000953906801244619905_);fill:#FFFFFF;}
</style>
<g>
	<defs>
		<rect id="SVGID_1_" y="0" width="100" height="100"/>
	</defs>
	<clipPath id="SVGID_00000043419704866394548280000014775219441457304714_">
		<use xlink:href="#SVGID_1_"  style="overflow:visible;"/>
	</clipPath>
	<path style="clip-path:url(#SVGID_00000043419704866394548280000014775219441457304714_);" d="M5.4,0C2.4,0,0,2.4,0,5.4v89.2
		c0,3,2.4,5.4,5.4,5.4h89.2c3,0,5.4-2.4,5.4-5.4V5.4c0-3-2.4-5.4-5.4-5.4H5.4z"/>
	<path style="clip-path:url(#SVGID_00000043419704866394548280000014775219441457304714_);fill:#FFFFFF;" d="M6.1,3.3
		C4.6,3.3,3.4,4.6,3.4,6v14.2h16.9V3.3H6.1z"/>
</g>
<rect x="3.4" y="22.4" class="st2" width="16.9" height="16.9"/>
<rect x="3.4" y="41.5" class="st2" width="16.9" height="16.9"/>
<rect x="3.4" y="60.6" class="st2" width="16.9" height="16.9"/>
<rect x="22.5" y="3.3" class="st2" width="16.9" height="16.9"/>
<rect x="22.5" y="41.5" class="st2" width="16.9" height="16.9"/>
<rect x="22.5" y="79.7" class="st2" width="16.9" height="16.9"/>
<rect x="41.6" y="3.3" class="st2" width="16.9" height="16.9"/>
<rect x="41.6" y="22.4" class="st2" width="16.9" height="16.9"/>
<rect x="41.6" y="41.5" class="st2" width="16.9" height="16.9"/>
<rect x="41.6" y="60.6" class="st2" width="16.9" height="16.9"/>
<rect x="41.6" y="79.7" class="st2" width="16.9" height="16.9"/>
<rect x="60.6" y="3.3" class="st2" width="16.9" height="16.9"/>
<rect x="60.6" y="41.5" class="st2" width="16.9" height="16.9"/>
<rect x="60.6" y="79.7" class="st2" width="16.9" height="16.9"/>
<rect x="79.7" y="22.4" class="st2" width="16.9" height="16.9"/>
<rect x="79.7" y="41.5" class="st2" width="16.9" height="16.9"/>
<rect x="79.7" y="60.6" class="st2" width="16.9" height="16.9"/>
<g>
	<defs>
		<rect id="SVGID_00000070813290783544100540000002693894877467661235_" y="0" width="100" height="100"/>
	</defs>
	<clipPath id="SVGID_00000057861138714627474010000005671386246584013967_">
		<use xlink:href="#SVGID_00000070813290783544100540000002693894877467661235_"  style="overflow:visible;"/>
	</clipPath>
	<path style="clip-path:url(#SVGID_00000057861138714627474010000005671386246584013967_);fill:#FFFFFF;" d="M79.7,79.7v16.9h14.2
		c1.5,0,2.7-1.2,2.7-2.7V79.7H79.7z"/>
</g>
</svg>
