<?xml version="1.0" encoding="utf-8"?>
<!-- Generator: Adobe Illustrator 26.2.1, SVG Export Plug-In . SVG Version: 6.00 Build 0)  -->
<svg version="1.1" id="Layer_1" xmlns="http://www.w3.org/2000/svg" xmlns:xlink="http://www.w3.org/1999/xlink" x="0px" y="0px"
	 viewBox="0 0 74 74" style="enable-background:new 0 0 74 74;" xml:space="preserve">
<style type="text/css">
	.st0{clip-path:url(#SVGID_00000104696742742335036920000002164204087089464706_);fill:#1D1D1B;}
	.st1{clip-path:url(#SVGID_00000104696742742335036920000002164204087089464706_);fill:#FFFFFF;}
	.st2{fill:#FFFFFF;}
	.st3{clip-path:url(#SVGID_00000103978454144221276340000011396358495442948255_);fill:#FFFFFF;}
	.st4{clip-path:url(#SVGID_00000129178800579884584030000010532405985109607306_);fill:#FFFFFF;}
	
		.st5{clip-path:url(#SVGID_00000129178800579884584030000010532405985109607306_);fill:none;stroke:#FFFFFF;stroke-width:5;stroke-linecap:round;}
	.st6{fill:none;stroke:#1D1D1B;stroke-width:3;stroke-linecap:round;stroke-linejoin:round;}
</style>
<g>
	<defs>
		<rect id="SVGID_1_" width="74" height="74"/>
	</defs>
	<clipPath id="SVGID_00000114035145487743373800000008487078160083884190_">
		<use xlink:href="#SVGID_1_"  style="overflow:visible;"/>
	</clipPath>
	<path style="clip-path:url(#SVGID_00000114035145487743373800000008487078160083884190_);fill:#1D1D1B;" d="M4,0C1.8,0,0,1.8,0,4
		v66c0,2.2,1.8,4,4,4h66c2.2,0,4-1.8,4-4V4c0-2.2-1.8-4-4-4H4z"/>
	<path style="clip-path:url(#SVGID_00000114035145487743373800000008487078160083884190_);fill:#FFFFFF;" d="M4.5,2.5
		c-1.1,0-2,0.9-2,2v11h13v-13H4.5z"/>
</g>
<rect x="2.5" y="16.5" class="st2" width="13" height="13"/>
<rect x="2.5" y="30.5" class="st2" width="13" height="13"/>
<rect x="2.5" y="44.5" class="st2" width="13" height="13"/>
<rect x="16.5" y="2.5" class="st2" width="13" height="13"/>
<rect x="16.5" y="30.5" class="st2" width="13" height="13"/>
<rect x="16.5" y="58.5" class="st2" width="13" height="13"/>
<rect x="30.5" y="2.5" class="st2" width="13" height="13"/>
<rect x="30.5" y="16.5" class="st2" width="13" height="13"/>
<rect x="30.5" y="30.5" class="st2" width="13" height="13"/>
<rect x="30.5" y="44.5" class="st2" width="13" height="13"/>
<rect x="30.5" y="58.5" class="st2" width="13" height="13"/>
<rect x="44.5" y="2.5" class="st2" width="13" height="13"/>
<rect x="44.5" y="30.5" class="st2" width="13" height="13"/>
<rect x="44.5" y="58.5" class="st2" width="13" height="13"/>
<rect x="58.5" y="16.5" class="st2" width="13" height="13"/>
<rect x="58.5" y="30.5" class="st2" width="13" height="13"/>
<rect x="58.5" y="44.5" class="st2" width="13" height="13"/>
<g>
	<defs>
		<rect id="SVGID_00000137852019287904564990000000954714854198078097_" width="74" height="74"/>
	</defs>
	<clipPath id="SVGID_00000075161417037191513870000018231309020063534482_">
		<use xlink:href="#SVGID_00000137852019287904564990000000954714854198078097_"  style="overflow:visible;"/>
	</clipPath>
	<path style="clip-path:url(#SVGID_00000075161417037191513870000018231309020063534482_);fill:#FFFFFF;" d="M58.5,58.5v13h11
		c1.1,0,2-0.9,2-2v-11H58.5z"/>
</g>
<rect x="16.5" y="16.5" class="st2" width="13" height="13"/>
<rect x="44.5" y="16.5" class="st2" width="13" height="13"/>
<rect x="16.5" y="44.5" class="st2" width="13" height="13"/>
<rect x="44.5" y="44.5" class="st2" width="13" height="13"/>
<g>
	<defs>
		<rect id="SVGID_00000087406958247431691770000016862982569101790394_" width="74" height="74"/>
	</defs>
	<clipPath id="SVGID_00000041275478476325679550000002859721795534972311_">
		<use xlink:href="#SVGID_00000087406958247431691770000016862982569101790394_"  style="overflow:visible;"/>
	</clipPath>
	<path style="clip-path:url(#SVGID_00000041275478476325679550000002859721795534972311_);fill:#FFFFFF;" d="M15.5,58.5h-13v11
		c0,1.1,0.9,2,2,2h11V58.5z"/>
	<path style="clip-path:url(#SVGID_00000041275478476325679550000002859721795534972311_);fill:#FFFFFF;" d="M71.5,4.5
		c0-1.1-0.9-2-2-2h-11v13h13V4.5z"/>
	
		<polyline style="clip-path:url(#SVGID_00000041275478476325679550000002859721795534972311_);fill:none;stroke:#FFFFFF;stroke-width:5;stroke-linecap:round;" points="
		37,65.2 8.8,65.2 8.8,8.8 37,8.8 37,22.9 22.9,22.9 22.9,51.1 37,51.1 37,37 51.1,37 51.1,10 65.2,10 65.2,65.2 50,65.2 50,52 	"/>
</g>
<polyline class="st6" points="37,65.2 8.8,65.2 8.8,8.8 37,8.8 37,22.9 22.9,22.9 22.9,51.1 37,51.1 37,37 51.1,37 51.1,10 65.2,10 
	65.2,65.2 50,65.2 50,52 "/>
</svg>
