<?xml version="1.0" encoding="utf-8"?>
<!-- Generator: Adobe Illustrator 26.0.1, SVG Export Plug-In . SVG Version: 6.00 Build 0)  -->
<svg version="1.1" id="Layer_1" xmlns="http://www.w3.org/2000/svg" xmlns:xlink="http://www.w3.org/1999/xlink" x="0px" y="0px"
	 viewBox="0 0 100 100" style="enable-background:new 0 0 100 100;" xml:space="preserve">
<style type="text/css">
	.st0{clip-path:url(#SVGID_00000173868743448586815930000015519987176893767054_);fill:#FFFFFF;}
	.st1{clip-path:url(#SVGID_00000173868743448586815930000015519987176893767054_);fill:none;stroke:#1D1D1B;stroke-width:2.703;}
</style>
<g>
	<defs>
		<rect id="SVGID_1_" width="100" height="100"/>
	</defs>
	<clipPath id="SVGID_00000000208079911736392010000009340581203686592703_">
		<use xlink:href="#SVGID_1_"  style="overflow:visible;"/>
	</clipPath>
	<path style="clip-path:url(#SVGID_00000000208079911736392010000009340581203686592703_);fill:#FFFFFF;" d="M10.1,1.4
		c-4.9,0-8.8,3.9-8.8,8.8c0,4.9,3.9,8.8,8.8,8.8h13.5c4.9,0,8.8-3.9,8.8-8.8c0-4.9-3.9-8.8-8.8-8.8H10.1z"/>
	
		<path style="clip-path:url(#SVGID_00000000208079911736392010000009340581203686592703_);fill:none;stroke:#1D1D1B;stroke-width:2.703;" d="
		M10.1,1.4c-4.9,0-8.8,3.9-8.8,8.8c0,4.9,3.9,8.8,8.8,8.8h13.5c4.9,0,8.8-3.9,8.8-8.8c0-4.9-3.9-8.8-8.8-8.8H10.1z"/>
	<path style="clip-path:url(#SVGID_00000000208079911736392010000009340581203686592703_);fill:#FFFFFF;" d="M10.1,27.9
		c-4.9,0-8.8,3.9-8.8,8.8c0,4.9,3.9,8.8,8.8,8.8h13.5c4.9,0,8.8-3.9,8.8-8.8c0-4.9-3.9-8.8-8.8-8.8H10.1z"/>
	
		<path style="clip-path:url(#SVGID_00000000208079911736392010000009340581203686592703_);fill:none;stroke:#1D1D1B;stroke-width:2.703;" d="
		M10.1,27.9c-4.9,0-8.8,3.9-8.8,8.8c0,4.9,3.9,8.8,8.8,8.8h13.5c4.9,0,8.8-3.9,8.8-8.8c0-4.9-3.9-8.8-8.8-8.8H10.1z"/>
	<path style="clip-path:url(#SVGID_00000000208079911736392010000009340581203686592703_);fill:#FFFFFF;" d="M10.1,54.5
		c-4.9,0-8.8,3.9-8.8,8.8c0,4.9,3.9,8.8,8.8,8.8h13.5c4.9,0,8.8-3.9,8.8-8.8c0-4.9-3.9-8.8-8.8-8.8H10.1z"/>
	
		<path style="clip-path:url(#SVGID_00000000208079911736392010000009340581203686592703_);fill:none;stroke:#1D1D1B;stroke-width:2.703;" d="
		M10.1,54.5c-4.9,0-8.8,3.9-8.8,8.8c0,4.9,3.9,8.8,8.8,8.8h13.5c4.9,0,8.8-3.9,8.8-8.8c0-4.9-3.9-8.8-8.8-8.8H10.1z"/>
	<path style="clip-path:url(#SVGID_00000000208079911736392010000009340581203686592703_);fill:#FFFFFF;" d="M10.1,81.1
		c-4.9,0-8.8,3.9-8.8,8.8c0,4.9,3.9,8.8,8.8,8.8h13.5c4.9,0,8.8-3.9,8.8-8.8c0-4.9-3.9-8.8-8.8-8.8H10.1z"/>
	
		<path style="clip-path:url(#SVGID_00000000208079911736392010000009340581203686592703_);fill:none;stroke:#1D1D1B;stroke-width:2.703;" d="
		M10.1,81.1c-4.9,0-8.8,3.9-8.8,8.8c0,4.9,3.9,8.8,8.8,8.8h13.5c4.9,0,8.8-3.9,8.8-8.8c0-4.9-3.9-8.8-8.8-8.8H10.1z"/>
	<path style="clip-path:url(#SVGID_00000000208079911736392010000009340581203686592703_);fill:#FFFFFF;" d="M43.3,1.4
		c-4.9,0-8.8,3.9-8.8,8.8c0,4.9,3.9,8.8,8.8,8.8h13.5c4.9,0,8.8-3.9,8.8-8.8c0-4.9-3.9-8.8-8.8-8.8H43.3z"/>
	
		<path style="clip-path:url(#SVGID_00000000208079911736392010000009340581203686592703_);fill:none;stroke:#1D1D1B;stroke-width:2.703;" d="
		M43.3,1.4c-4.9,0-8.8,3.9-8.8,8.8c0,4.9,3.9,8.8,8.8,8.8h13.5c4.9,0,8.8-3.9,8.8-8.8c0-4.9-3.9-8.8-8.8-8.8H43.3z"/>
	<path style="clip-path:url(#SVGID_00000000208079911736392010000009340581203686592703_);fill:#FFFFFF;" d="M43.3,27.9
		c-4.9,0-8.8,3.9-8.8,8.8c0,4.9,3.9,8.8,8.8,8.8h13.5c4.9,0,8.8-3.9,8.8-8.8c0-4.9-3.9-8.8-8.8-8.8H43.3z"/>
	
		<path style="clip-path:url(#SVGID_00000000208079911736392010000009340581203686592703_);fill:none;stroke:#1D1D1B;stroke-width:2.703;" d="
		M43.3,27.9c-4.9,0-8.8,3.9-8.8,8.8c0,4.9,3.9,8.8,8.8,8.8h13.5c4.9,0,8.8-3.9,8.8-8.8c0-4.9-3.9-8.8-8.8-8.8H43.3z"/>
	<path style="clip-path:url(#SVGID_00000000208079911736392010000009340581203686592703_);fill:#FFFFFF;" d="M43.3,54.5
		c-4.9,0-8.8,3.9-8.8,8.8c0,4.9,3.9,8.8,8.8,8.8h13.5c4.9,0,8.8-3.9,8.8-8.8c0-4.9-3.9-8.8-8.8-8.8H43.3z"/>
	
		<path style="clip-path:url(#SVGID_00000000208079911736392010000009340581203686592703_);fill:none;stroke:#1D1D1B;stroke-width:2.703;" d="
		M43.3,54.5c-4.9,0-8.8,3.9-8.8,8.8c0,4.9,3.9,8.8,8.8,8.8h13.5c4.9,0,8.8-3.9,8.8-8.8c0-4.9-3.9-8.8-8.8-8.8H43.3z"/>
	<path style="clip-path:url(#SVGID_00000000208079911736392010000009340581203686592703_);fill:#FFFFFF;" d="M43.3,81.1
		c-4.9,0-8.8,3.9-8.8,8.8c0,4.9,3.9,8.8,8.8,8.8h13.5c4.9,0,8.8-3.9,8.8-8.8c0-4.9-3.9-8.8-8.8-8.8H43.3z"/>
	
		<path style="clip-path:url(#SVGID_00000000208079911736392010000009340581203686592703_);fill:none;stroke:#1D1D1B;stroke-width:2.703;" d="
		M43.3,81.1c-4.9,0-8.8,3.9-8.8,8.8c0,4.9,3.9,8.8,8.8,8.8h13.5c4.9,0,8.8-3.9,8.8-8.8c0-4.9-3.9-8.8-8.8-8.8H43.3z"/>
	<path style="clip-path:url(#SVGID_00000000208079911736392010000009340581203686592703_);fill:#FFFFFF;" d="M76.4,1.4
		c-4.9,0-8.8,3.9-8.8,8.8c0,4.9,3.9,8.8,8.8,8.8h13.5c4.9,0,8.8-3.9,8.8-8.8c0-4.9-3.9-8.8-8.8-8.8H76.4z"/>
	
		<path style="clip-path:url(#SVGID_00000000208079911736392010000009340581203686592703_);fill:none;stroke:#1D1D1B;stroke-width:2.703;" d="
		M76.4,1.4c-4.9,0-8.8,3.9-8.8,8.8c0,4.9,3.9,8.8,8.8,8.8h13.5c4.9,0,8.8-3.9,8.8-8.8c0-4.9-3.9-8.8-8.8-8.8H76.4z"/>
	<path style="clip-path:url(#SVGID_00000000208079911736392010000009340581203686592703_);fill:#FFFFFF;" d="M76.4,27.9
		c-4.9,0-8.8,3.9-8.8,8.8c0,4.9,3.9,8.8,8.8,8.8h13.5c4.9,0,8.8-3.9,8.8-8.8c0-4.9-3.9-8.8-8.8-8.8H76.4z"/>
	
		<path style="clip-path:url(#SVGID_00000000208079911736392010000009340581203686592703_);fill:none;stroke:#1D1D1B;stroke-width:2.703;" d="
		M76.4,27.9c-4.9,0-8.8,3.9-8.8,8.8c0,4.9,3.9,8.8,8.8,8.8h13.5c4.9,0,8.8-3.9,8.8-8.8c0-4.9-3.9-8.8-8.8-8.8H76.4z"/>
	<path style="clip-path:url(#SVGID_00000000208079911736392010000009340581203686592703_);fill:#FFFFFF;" d="M76.4,54.5
		c-4.9,0-8.8,3.9-8.8,8.8c0,4.9,3.9,8.8,8.8,8.8h13.5c4.9,0,8.8-3.9,8.8-8.8c0-4.9-3.9-8.8-8.8-8.8H76.4z"/>
	
		<path style="clip-path:url(#SVGID_00000000208079911736392010000009340581203686592703_);fill:none;stroke:#1D1D1B;stroke-width:2.703;" d="
		M76.4,54.5c-4.9,0-8.8,3.9-8.8,8.8c0,4.9,3.9,8.8,8.8,8.8h13.5c4.9,0,8.8-3.9,8.8-8.8c0-4.9-3.9-8.8-8.8-8.8H76.4z"/>
	<path style="clip-path:url(#SVGID_00000000208079911736392010000009340581203686592703_);fill:#FFFFFF;" d="M76.4,81.1
		c-4.9,0-8.8,3.9-8.8,8.8c0,4.9,3.9,8.8,8.8,8.8h13.5c4.9,0,8.8-3.9,8.8-8.8c0-4.9-3.9-8.8-8.8-8.8H76.4z"/>
	
		<path style="clip-path:url(#SVGID_00000000208079911736392010000009340581203686592703_);fill:none;stroke:#1D1D1B;stroke-width:2.703;" d="
		M76.4,81.1c-4.9,0-8.8,3.9-8.8,8.8c0,4.9,3.9,8.8,8.8,8.8h13.5c4.9,0,8.8-3.9,8.8-8.8c0-4.9-3.9-8.8-8.8-8.8H76.4z"/>
</g>
</svg>
