<?xml version="1.0" encoding="utf-8"?>
<!-- Generator: Adobe Illustrator 26.2.1, SVG Export Plug-In . SVG Version: 6.00 Build 0)  -->
<svg version="1.1" id="Layer_1" xmlns="http://www.w3.org/2000/svg" xmlns:xlink="http://www.w3.org/1999/xlink" x="0px" y="0px"
	 viewBox="0 0 74 74" style="enable-background:new 0 0 74 74;" xml:space="preserve">
<style type="text/css">
	.st0{clip-path:url(#SVGID_00000048473044278581136930000006134238640726475677_);fill:#1D1D1B;}
	.st1{clip-path:url(#SVGID_00000048473044278581136930000006134238640726475677_);fill:#FFFFFF;}
	.st2{fill:#1D1D1B;}
	.st3{fill:#FFFFFF;}
	.st4{clip-path:url(#SVGID_00000047041894669109980240000017270231234495583650_);fill:#1D1D1B;}
	.st5{clip-path:url(#SVGID_00000047041894669109980240000017270231234495583650_);fill:#FFFFFF;}
	.st6{clip-path:url(#SVGID_00000020385164289623323830000008408028327291444136_);fill:#FFFFFF;}
	.st7{clip-path:url(#SVGID_00000020385164289623323830000008408028327291444136_);fill:none;stroke:#1D1D1B;stroke-width:3.166;}
</style>
<g>
	<defs>
		<rect id="SVGID_1_" width="74" height="74"/>
	</defs>
	<clipPath id="SVGID_00000146483471738974576380000010680524880774199989_">
		<use xlink:href="#SVGID_1_"  style="overflow:visible;"/>
	</clipPath>
	<path style="clip-path:url(#SVGID_00000146483471738974576380000010680524880774199989_);fill:#1D1D1B;" d="M4,0C1.8,0,0,1.8,0,4
		v66c0,2.2,1.8,4,4,4h66c2.2,0,4-1.8,4-4V4c0-2.2-1.8-4-4-4H4z"/>
	<path style="clip-path:url(#SVGID_00000146483471738974576380000010680524880774199989_);fill:#FFFFFF;" d="M4.5,2.5
		c-1.1,0-2,0.9-2,2V15H15V2.5H4.5z"/>
</g>
<rect x="2.5" y="16.6" class="st2" width="12.5" height="12.5"/>
<rect x="2.5" y="30.8" class="st2" width="12.5" height="12.5"/>
<rect x="59" y="44.9" class="st3" width="12.5" height="12.5"/>
<rect x="16.6" y="2.5" class="st3" width="12.5" height="12.5"/>
<rect x="16.6" y="30.8" class="st3" width="12.5" height="12.5"/>
<rect x="16.6" y="59" class="st3" width="12.5" height="12.5"/>
<rect x="30.8" y="2.5" class="st3" width="12.5" height="12.5"/>
<polyline class="st3" points="30.8,30.8 30.8,43.2 43.2,43.2 43.2,30.8 "/>
<rect x="30.8" y="59" class="st3" width="12.5" height="12.5"/>
<rect x="44.9" y="2.5" class="st3" width="12.5" height="12.5"/>
<rect x="44.9" y="30.8" class="st3" width="12.5" height="12.5"/>
<rect x="44.9" y="59" class="st3" width="12.5" height="12.5"/>
<rect x="2.5" y="16.6" class="st3" width="12.5" height="12.5"/>
<rect x="59" y="30.8" class="st3" width="12.5" height="12.5"/>
<g>
	<defs>
		<rect id="SVGID_00000165924268292939870240000007881535362024108222_" width="74" height="74"/>
	</defs>
	<clipPath id="SVGID_00000064353210702610244220000006718060923875168907_">
		<use xlink:href="#SVGID_00000165924268292939870240000007881535362024108222_"  style="overflow:visible;"/>
	</clipPath>
	<path style="clip-path:url(#SVGID_00000064353210702610244220000006718060923875168907_);fill:#1D1D1B;" d="M59,59v12.5h10.5
		c1.1,0,2-0.9,2-2V59H59z"/>
	<path style="clip-path:url(#SVGID_00000064353210702610244220000006718060923875168907_);fill:#FFFFFF;" d="M15,59v12.5H4.5
		c-1.1,0-2-0.9-2-2V59H15z"/>
	<path style="clip-path:url(#SVGID_00000064353210702610244220000006718060923875168907_);fill:#1D1D1B;" d="M69.5,2.5
		c1.1,0,2,0.9,2,2V15H59V2.5H69.5z"/>
</g>
<rect x="2.5" y="44.9" class="st3" width="12.5" height="12.5"/>
<rect x="59" y="16.6" class="st3" width="12.5" height="12.5"/>
<rect x="16.6" y="16.6" class="st3" width="12.5" height="12.5"/>
<rect x="44.9" y="44.9" class="st3" width="12.5" height="12.5"/>
<rect x="30.8" y="16.6" class="st3" width="12.5" height="12.5"/>
<g>
	<defs>
		<rect id="SVGID_00000031207246809763860920000007729357644811490484_" width="74" height="74"/>
	</defs>
	<clipPath id="SVGID_00000000944437873440142700000007958016328290089639_">
		<use xlink:href="#SVGID_00000031207246809763860920000007729357644811490484_"  style="overflow:visible;"/>
	</clipPath>
	<path style="clip-path:url(#SVGID_00000000944437873440142700000007958016328290089639_);fill:#FFFFFF;" d="M30.6,52.9
		c-1.8,1.8-2.8,4.1-2.8,6.6c0,2.6,0.9,4.8,2.8,6.6c1.8,1.8,4.1,2.8,6.6,2.8c2.5,0,4.8-0.9,6.6-2.8c1.8-1.8,2.8-4.1,2.8-6.6
		c0-2.6-0.9-4.8-2.8-6.6c-1.8-1.8-4.1-2.8-6.6-2.8C34.6,50.1,32.4,51.1,30.6,52.9 M58.7,31.6c1.7-2.5,2.6-5.4,2.6-8.8
		c0-2.5-0.6-4.9-1.7-7.1c-1.1-2.1-2.7-4-4.7-5.6c-2-1.6-4.3-2.8-7-3.7c-2.7-0.9-5.6-1.3-8.6-1.3c-5.5,0-10.4,1.4-14.7,4.1
		c-4.3,2.8-7.4,6.5-9,11.1L15,21.8l1.5,0.5l11,4.1l1.5,0.5l0.6-1.5c0.7-1.8,1.9-3.3,3.6-4.4c1.7-1.1,3.6-1.7,5.7-1.7
		c1.9,0,3.4,0.4,4.6,1.3c1.1,0.8,1.5,1.7,1.5,2.8c0,0.5-0.2,1.2-0.7,1.8c-0.6,0.8-1.6,1.7-2.8,2.7l-4.5,3.3C34,33.7,32,36,31,38.4
		c-1,2.4-1.4,5.6-1.1,9.8l0.1,1.5h1.5h11.3h1.6l0-1.6c0-1.8,0.2-3.2,0.7-4.2c0.5-1,1.5-2,2.8-2.9l2.1-1.4C54.2,36.6,57,34,58.7,31.6
		z"/>
	
		<path style="clip-path:url(#SVGID_00000000944437873440142700000007958016328290089639_);fill:none;stroke:#1D1D1B;stroke-width:3.166;" d="
		M30.6,52.9c-1.8,1.8-2.8,4.1-2.8,6.6c0,2.6,0.9,4.8,2.8,6.6c1.8,1.8,4.1,2.8,6.6,2.8c2.5,0,4.8-0.9,6.6-2.8
		c1.8-1.8,2.8-4.1,2.8-6.6c0-2.6-0.9-4.8-2.8-6.6c-1.8-1.8-4.1-2.8-6.6-2.8C34.6,50.1,32.4,51.1,30.6,52.9z M58.7,31.6
		c1.7-2.5,2.6-5.4,2.6-8.8c0-2.5-0.6-4.9-1.7-7.1c-1.1-2.1-2.7-4-4.7-5.6c-2-1.6-4.3-2.8-7-3.7c-2.7-0.9-5.6-1.3-8.6-1.3
		c-5.5,0-10.4,1.4-14.7,4.1c-4.3,2.8-7.4,6.5-9,11.1L15,21.8l1.5,0.5l11,4.1l1.5,0.5l0.6-1.5c0.7-1.8,1.9-3.3,3.6-4.4
		c1.7-1.1,3.6-1.7,5.7-1.7c1.9,0,3.4,0.4,4.6,1.3c1.1,0.8,1.5,1.7,1.5,2.8c0,0.5-0.2,1.2-0.7,1.8c-0.6,0.8-1.6,1.7-2.8,2.7l-4.5,3.3
		C34,33.7,32,36,31,38.4c-1,2.4-1.4,5.6-1.1,9.8l0.1,1.5h1.5h11.3h1.6l0-1.6c0-1.8,0.2-3.2,0.7-4.2c0.5-1,1.5-2,2.8-2.9l2.1-1.4
		C54.2,36.6,57,34,58.7,31.6z"/>
</g>
</svg>
