<?xml version="1.0" encoding="utf-8"?>
<!-- Generator: Adobe Illustrator 26.0.1, SVG Export Plug-In . SVG Version: 6.00 Build 0)  -->
<svg version="1.1" id="Layer_1" xmlns="http://www.w3.org/2000/svg" xmlns:xlink="http://www.w3.org/1999/xlink" x="0px" y="0px"
	 viewBox="0 0 100 100" style="enable-background:new 0 0 100 100;" xml:space="preserve">
<style type="text/css">
	.st0{clip-path:url(#SVGID_00000001623392854338447220000013974973779068040075_);fill:#1D1D1B;}
	.st1{clip-path:url(#SVGID_00000001623392854338447220000013974973779068040075_);fill:#FFFFFF;}
</style>
<g>
	<defs>
		<rect id="SVGID_1_" width="100" height="100"/>
	</defs>
	<clipPath id="SVGID_00000087371633440387928490000015143366759408143009_">
		<use xlink:href="#SVGID_1_"  style="overflow:visible;"/>
	</clipPath>
	<path style="clip-path:url(#SVGID_00000087371633440387928490000015143366759408143009_);fill:#1D1D1B;" d="M5.4,0
		C2.4,0,0,2.4,0,5.4v89.2c0,3,2.4,5.4,5.4,5.4h89.2c3,0,5.4-2.4,5.4-5.4V5.4c0-3-2.4-5.4-5.4-5.4H5.4z"/>
	<path style="clip-path:url(#SVGID_00000087371633440387928490000015143366759408143009_);fill:#FFFFFF;" d="M6.1,3.4
		c-1.5,0-2.7,1.2-2.7,2.7v87.8c0,1.5,1.2,2.7,2.7,2.7h87.8c1.5,0,2.7-1.2,2.7-2.7V6.1c0-1.5-1.2-2.7-2.7-2.7H6.1z"/>
	<path style="clip-path:url(#SVGID_00000087371633440387928490000015143366759408143009_);fill:#1D1D1B;" d="M16.4,12.2
		c-2.3,0-4.2,1.9-4.2,4.2v67.2c0,2.3,1.9,4.2,4.2,4.2h67.2c2.3,0,4.2-1.9,4.2-4.2V16.4c0-2.3-1.9-4.2-4.2-4.2H16.4z"/>
	<path style="clip-path:url(#SVGID_00000087371633440387928490000015143366759408143009_);fill:#FFFFFF;" d="M17.7,15.5
		c-1.2,0-2.1,0.9-2.1,2.1v64.7c0,1.2,0.9,2.1,2.1,2.1h64.7c1.2,0,2.1-0.9,2.1-2.1V17.7c0-1.2-0.9-2.1-2.1-2.1H17.7z"/>
	<path style="clip-path:url(#SVGID_00000087371633440387928490000015143366759408143009_);fill:#1D1D1B;" d="M10.1,26.4
		c-2.2,0-4.1,1.8-4.1,4.1v5.4c0,2.2,1.8,4.1,4.1,4.1h8.1c2.2,0,4.1-1.8,4.1-4.1v-5.4c0-2.2-1.8-4.1-4.1-4.1H10.1z"/>
	<path style="clip-path:url(#SVGID_00000087371633440387928490000015143366759408143009_);fill:#FFFFFF;" d="M10.9,29.1
		c-1.2,0-2.1,0.9-2.1,2.1V35c0,1.2,0.9,2.1,2.1,2.1h6.6c1.2,0,2.1-0.9,2.1-2.1v-3.9c0-1.2-0.9-2.1-2.1-2.1H10.9z"/>
	<path style="clip-path:url(#SVGID_00000087371633440387928490000015143366759408143009_);fill:#1D1D1B;" d="M10.1,60.1
		c-2.2,0-4.1,1.8-4.1,4.1v5.4c0,2.2,1.8,4.1,4.1,4.1h8.1c2.2,0,4.1-1.8,4.1-4.1v-5.4c0-2.2-1.8-4.1-4.1-4.1H10.1z"/>
	<path style="clip-path:url(#SVGID_00000087371633440387928490000015143366759408143009_);fill:#FFFFFF;" d="M10.9,62.8
		c-1.2,0-2.1,0.9-2.1,2.1v3.9c0,1.2,0.9,2.1,2.1,2.1h6.6c1.2,0,2.1-0.9,2.1-2.1V65c0-1.2-0.9-2.1-2.1-2.1H10.9z"/>
	<path style="clip-path:url(#SVGID_00000087371633440387928490000015143366759408143009_);fill:#1D1D1B;" d="M50,70.3
		c11.2,0,20.3-9.1,20.3-20.3S61.2,29.7,50,29.7S29.7,38.8,29.7,50S38.8,70.3,50,70.3"/>
	<path style="clip-path:url(#SVGID_00000087371633440387928490000015143366759408143009_);fill:#FFFFFF;" d="M37.6,62.4
		c6.9,6.9,18,6.9,24.8,0c6.9-6.9,6.9-18,0-24.8c-6.9-6.9-18-6.9-24.8,0C30.7,44.4,30.7,55.6,37.6,62.4"/>
	<path style="clip-path:url(#SVGID_00000087371633440387928490000015143366759408143009_);fill:#1D1D1B;" d="M60.1,46.3l2.4-8.9
		l-9,2.4c-3.8-1.3-8.1-0.5-11.2,2.5c-4.2,4.2-4.2,11.1,0,15.3s11.1,4.2,15.3,0C60.7,54.6,61.5,50.1,60.1,46.3"/>
	<path style="clip-path:url(#SVGID_00000087371633440387928490000015143366759408143009_);fill:#FFFFFF;" d="M57.3,46.8l1.5-5.7
		l-5.8,1.5c-3-1.2-6.5-0.7-8.9,1.7c-3.2,3.2-3.2,8.3,0,11.5c3.2,3.2,8.3,3.2,11.5,0C58.1,53.4,58.7,49.8,57.3,46.8"/>
	<path style="clip-path:url(#SVGID_00000087371633440387928490000015143366759408143009_);fill:#1D1D1B;" d="M41.4,58.5
		c-0.8-0.8-2.1-0.8-2.9,0c-0.8,0.8-0.8,2.1,0,2.9c0.8,0.8,2.1,0.8,2.9,0C42.2,60.6,42.2,59.3,41.4,58.5"/>
	<path style="clip-path:url(#SVGID_00000087371633440387928490000015143366759408143009_);fill:#1D1D1B;" d="M37.8,49.9
		c0-1.1-0.9-2-2-2c-1.1,0-2,0.9-2,2c0,1.1,0.9,2,2,2C36.9,52,37.8,51.1,37.8,49.9"/>
	<path style="clip-path:url(#SVGID_00000087371633440387928490000015143366759408143009_);fill:#1D1D1B;" d="M66.2,49.9
		c0-1.1-0.9-2-2-2c-1.1,0-2,0.9-2,2c0,1.1,0.9,2,2,2C65.3,52,66.2,51.1,66.2,49.9"/>
	<path style="clip-path:url(#SVGID_00000087371633440387928490000015143366759408143009_);fill:#1D1D1B;" d="M41.4,41.3
		c0.8-0.8,0.8-2.1,0-2.9c-0.8-0.8-2.1-0.8-2.9,0c-0.8,0.8-0.8,2.1,0,2.9C39.3,42.1,40.6,42.1,41.4,41.3"/>
	<path style="clip-path:url(#SVGID_00000087371633440387928490000015143366759408143009_);fill:#1D1D1B;" d="M61.5,61.4
		c0.8-0.8,0.8-2.1,0-2.9c-0.8-0.8-2.1-0.8-2.9,0c-0.8,0.8-0.8,2.1,0,2.9C59.4,62.2,60.7,62.2,61.5,61.4"/>
	<path style="clip-path:url(#SVGID_00000087371633440387928490000015143366759408143009_);fill:#1D1D1B;" d="M50,37.8
		c1.1,0,2-0.9,2-2c0-1.1-0.9-2-2-2c-1.1,0-2,0.9-2,2C48,36.9,48.9,37.8,50,37.8"/>
	<path style="clip-path:url(#SVGID_00000087371633440387928490000015143366759408143009_);fill:#1D1D1B;" d="M50,66.2
		c1.1,0,2-0.9,2-2c0-1.1-0.9-2-2-2c-1.1,0-2,0.9-2,2C48,65.3,48.9,66.2,50,66.2"/>
</g>
</svg>
