<?xml version="1.0" encoding="utf-8"?>
<!-- Generator: Adobe Illustrator 26.0.1, SVG Export Plug-In . SVG Version: 6.00 Build 0)  -->
<svg version="1.1" id="Layer_1" xmlns="http://www.w3.org/2000/svg" xmlns:xlink="http://www.w3.org/1999/xlink" x="0px" y="0px"
	 viewBox="0 0 100 100" style="enable-background:new 0 0 100 100;" xml:space="preserve">
<style type="text/css">
	.st0{clip-path:url(#SVGID_00000122684897482267280520000011975061046068748180_);fill:#FFFFFF;}
	.st1{clip-path:url(#SVGID_00000122684897482267280520000011975061046068748180_);fill:none;stroke:#1D1D1B;stroke-width:2.888;}
	.st2{fill:#1D1D1B;}
	.st3{clip-path:url(#SVGID_00000169540273509766454400000013901551748200226996_);fill:#FFFFFF;}
	.st4{clip-path:url(#SVGID_00000169540273509766454400000013901551748200226996_);fill:none;stroke:#1D1D1B;stroke-width:2.888;}
	.st5{clip-path:url(#SVGID_00000162342086133476693270000000231729369736667791_);fill:#FFFFFF;}
	.st6{clip-path:url(#SVGID_00000162342086133476693270000000231729369736667791_);fill:none;stroke:#1D1D1B;stroke-width:2.888;}
	.st7{clip-path:url(#SVGID_00000026852850686508060820000005344885653406116238_);fill:#FFFFFF;}
	.st8{clip-path:url(#SVGID_00000026852850686508060820000005344885653406116238_);fill:none;stroke:#1D1D1B;stroke-width:2.888;}
</style>
<g>
	<defs>
		<rect id="SVGID_1_" width="100" height="100"/>
	</defs>
	<clipPath id="SVGID_00000162354403263689947020000013446592444719796154_">
		<use xlink:href="#SVGID_1_"  style="overflow:visible;"/>
	</clipPath>
	<path style="clip-path:url(#SVGID_00000162354403263689947020000013446592444719796154_);fill:#FFFFFF;" d="M7.2,1.4
		C4,1.4,1.4,4,1.4,7.2v33.5c0,3.2,2.6,5.8,5.8,5.8h33.5c3.2,0,5.8-2.6,5.8-5.8V7.2c0-3.2-2.6-5.8-5.8-5.8H7.2z"/>
	
		<path style="clip-path:url(#SVGID_00000162354403263689947020000013446592444719796154_);fill:none;stroke:#1D1D1B;stroke-width:2.888;" d="
		M7.2,1.4C4,1.4,1.4,4,1.4,7.2v33.5c0,3.2,2.6,5.8,5.8,5.8h33.5c3.2,0,5.8-2.6,5.8-5.8V7.2c0-3.2-2.6-5.8-5.8-5.8H7.2z"/>
</g>
<rect x="31" y="2.8" class="st2" width="14.1" height="14.1"/>
<rect x="31" y="16.9" class="st2" width="14.1" height="14.1"/>
<rect x="2.8" y="16.9" class="st2" width="14.1" height="14.1"/>
<rect x="16.9" y="31" class="st2" width="14.1" height="14.1"/>
<g>
	<defs>
		<rect id="SVGID_00000139288159903742966270000017115033328518064773_" width="100" height="100"/>
	</defs>
	<clipPath id="SVGID_00000019677415211966758150000007130854441491835271_">
		<use xlink:href="#SVGID_00000139288159903742966270000017115033328518064773_"  style="overflow:visible;"/>
	</clipPath>
	<path style="clip-path:url(#SVGID_00000019677415211966758150000007130854441491835271_);fill:#FFFFFF;" d="M59.2,1.4
		c-3.2,0-5.8,2.6-5.8,5.8v33.5c0,3.2,2.6,5.8,5.8,5.8h33.5c3.2,0,5.8-2.6,5.8-5.8V7.2c0-3.2-2.6-5.8-5.8-5.8H59.2z"/>
	
		<path style="clip-path:url(#SVGID_00000019677415211966758150000007130854441491835271_);fill:none;stroke:#1D1D1B;stroke-width:2.888;" d="
		M59.2,1.4c-3.2,0-5.8,2.6-5.8,5.8v33.5c0,3.2,2.6,5.8,5.8,5.8h33.5c3.2,0,5.8-2.6,5.8-5.8V7.2c0-3.2-2.6-5.8-5.8-5.8H59.2z"/>
</g>
<rect x="69" y="2.8" class="st2" width="14.1" height="14.1"/>
<rect x="83.1" y="16.9" class="st2" width="14.1" height="14.1"/>
<rect x="54.8" y="31" class="st2" width="14.1" height="14.1"/>
<g>
	<defs>
		<rect id="SVGID_00000044862599098750970860000014501830499868624262_" width="100" height="100"/>
	</defs>
	<clipPath id="SVGID_00000062153118831586025300000004211121818049561218_">
		<use xlink:href="#SVGID_00000044862599098750970860000014501830499868624262_"  style="overflow:visible;"/>
	</clipPath>
	<path style="clip-path:url(#SVGID_00000062153118831586025300000004211121818049561218_);fill:#FFFFFF;" d="M7.2,53.5
		c-3.2,0-5.8,2.6-5.8,5.8v33.5c0,3.2,2.6,5.8,5.8,5.8h33.5c3.2,0,5.8-2.6,5.8-5.8V59.2c0-3.2-2.6-5.8-5.8-5.8H7.2z"/>
	
		<path style="clip-path:url(#SVGID_00000062153118831586025300000004211121818049561218_);fill:none;stroke:#1D1D1B;stroke-width:2.888;" d="
		M7.2,53.5c-3.2,0-5.8,2.6-5.8,5.8v33.5c0,3.2,2.6,5.8,5.8,5.8h33.5c3.2,0,5.8-2.6,5.8-5.8V59.2c0-3.2-2.6-5.8-5.8-5.8H7.2z"/>
</g>
<rect x="2.8" y="54.8" class="st2" width="14.1" height="14.1"/>
<rect x="31" y="69" class="st2" width="14.1" height="14.1"/>
<rect x="2.8" y="83.1" class="st2" width="14.1" height="14.1"/>
<g>
	<defs>
		<rect id="SVGID_00000003827111657556501790000014857864972443809438_" width="100" height="100"/>
	</defs>
	<clipPath id="SVGID_00000181069429757798841000000009261920854103986610_">
		<use xlink:href="#SVGID_00000003827111657556501790000014857864972443809438_"  style="overflow:visible;"/>
	</clipPath>
	<path style="clip-path:url(#SVGID_00000181069429757798841000000009261920854103986610_);fill:#FFFFFF;" d="M59.2,53.5
		c-3.2,0-5.8,2.6-5.8,5.8v33.5c0,3.2,2.6,5.8,5.8,5.8h33.5c3.2,0,5.8-2.6,5.8-5.8V59.2c0-3.2-2.6-5.8-5.8-5.8H59.2z"/>
	
		<path style="clip-path:url(#SVGID_00000181069429757798841000000009261920854103986610_);fill:none;stroke:#1D1D1B;stroke-width:2.888;" d="
		M59.2,53.5c-3.2,0-5.8,2.6-5.8,5.8v33.5c0,3.2,2.6,5.8,5.8,5.8h33.5c3.2,0,5.8-2.6,5.8-5.8V59.2c0-3.2-2.6-5.8-5.8-5.8H59.2z"/>
</g>
<rect x="83.1" y="69" class="st2" width="14.1" height="14.1"/>
<rect x="54.8" y="69" class="st2" width="14.1" height="14.1"/>
<rect x="54.8" y="83.1" class="st2" width="14.1" height="14.1"/>
<rect x="69" y="83.1" class="st2" width="14.1" height="14.1"/>
</svg>
