<?xml version="1.0" encoding="utf-8"?>
<!-- Generator: Adobe Illustrator 26.0.1, SVG Export Plug-In . SVG Version: 6.00 Build 0)  -->
<svg version="1.1" id="Layer_1" xmlns="http://www.w3.org/2000/svg" xmlns:xlink="http://www.w3.org/1999/xlink" x="0px" y="0px"
	 viewBox="0 0 100 100" style="enable-background:new 0 0 100 100;" xml:space="preserve">
<style type="text/css">
	.st0{clip-path:url(#SVGID_00000086650012346480025810000012652304872071477401_);fill:#1D1D1B;}
	.st1{clip-path:url(#SVGID_00000086650012346480025810000012652304872071477401_);fill:#FFFFFF;}
	.st2{fill:#FFFFFF;}
	.st3{clip-path:url(#SVGID_00000163052674775571176110000004521966564263902887_);fill:#FFFFFF;}
	.st4{clip-path:url(#SVGID_00000064346118113053249890000011061488029656169381_);fill:#FFFFFF;}
	.st5{clip-path:url(#SVGID_00000080922232141845821280000003882453654018973080_);fill:#FFFFFF;}
	.st6{fill:#1D1D1B;}
	.st7{clip-path:url(#SVGID_00000026855868354246900790000012488752970789016255_);fill:#1D1D1B;}
</style>
<g>
	<defs>
		<rect id="SVGID_1_" width="100" height="100"/>
	</defs>
	<clipPath id="SVGID_00000172400797944439279820000013443051144667541666_">
		<use xlink:href="#SVGID_1_"  style="overflow:visible;"/>
	</clipPath>
	<path style="clip-path:url(#SVGID_00000172400797944439279820000013443051144667541666_);fill:#1D1D1B;" d="M5.4,0
		C2.4,0,0,2.4,0,5.4v89.2c0,3,2.4,5.4,5.4,5.4h89.2c3,0,5.4-2.4,5.4-5.4V5.4c0-3-2.4-5.4-5.4-5.4H5.4z"/>
	<path style="clip-path:url(#SVGID_00000172400797944439279820000013443051144667541666_);fill:#FFFFFF;" d="M7,3.4
		C5,3.4,3.4,5,3.4,7v25.4h29v-29H7z"/>
</g>
<rect x="3.4" y="35.5" class="st2" width="29" height="29"/>
<g>
	<defs>
		<rect id="SVGID_00000063630402106197667520000006674633853044879488_" width="100" height="100"/>
	</defs>
	<clipPath id="SVGID_00000167361076485136224870000008238513262849680809_">
		<use xlink:href="#SVGID_00000063630402106197667520000006674633853044879488_"  style="overflow:visible;"/>
	</clipPath>
	<path style="clip-path:url(#SVGID_00000167361076485136224870000008238513262849680809_);fill:#FFFFFF;" d="M3.4,67.6v26.3
		c0,1.5,1.2,2.7,2.7,2.7h26.3v-29H3.4z"/>
</g>
<rect x="35.5" y="3.4" class="st2" width="29" height="29"/>
<rect x="35.5" y="67.6" class="st2" width="29" height="29"/>
<g>
	<defs>
		<rect id="SVGID_00000077292429321965003090000018181017036057506958_" width="100" height="100"/>
	</defs>
	<clipPath id="SVGID_00000067943652136176018420000010896883108039518348_">
		<use xlink:href="#SVGID_00000077292429321965003090000018181017036057506958_"  style="overflow:visible;"/>
	</clipPath>
	<path style="clip-path:url(#SVGID_00000067943652136176018420000010896883108039518348_);fill:#FFFFFF;" d="M67.6,3.4v29h29V6.1
		c0-1.5-1.2-2.7-2.7-2.7H67.6z"/>
</g>
<rect x="67.6" y="35.5" class="st2" width="29" height="29"/>
<g>
	<defs>
		<rect id="SVGID_00000019649802649833933300000002288919637823706762_" width="100" height="100"/>
	</defs>
	<clipPath id="SVGID_00000008840370361220631010000010451556871001088702_">
		<use xlink:href="#SVGID_00000019649802649833933300000002288919637823706762_"  style="overflow:visible;"/>
	</clipPath>
	<path style="clip-path:url(#SVGID_00000008840370361220631010000010451556871001088702_);fill:#FFFFFF;" d="M67.6,67.6v29h26.3
		c1.5,0,2.7-1.2,2.7-2.7V67.6H67.6z"/>
</g>
<rect x="35.5" y="35.5" class="st2" width="29" height="29"/>
<polygon class="st6" points="51.3,8.8 46,10.9 46,14.5 49.8,13 49.8,27 54,27 54,8.8 "/>
<g>
	<defs>
		<rect id="SVGID_00000174603449643790622580000008313430859524012719_" width="100" height="100"/>
	</defs>
	<clipPath id="SVGID_00000113345233507148847720000011354273535759919233_">
		<use xlink:href="#SVGID_00000174603449643790622580000008313430859524012719_"  style="overflow:visible;"/>
	</clipPath>
	<path style="clip-path:url(#SVGID_00000113345233507148847720000011354273535759919233_);fill:#1D1D1B;" d="M89.3,59.2v-3.5h-7.6
		l4-3.4c1.2-1,2.1-2,2.6-2.9s0.8-1.8,0.8-2.9c0-0.9-0.2-1.6-0.5-2.3c-0.3-0.7-0.8-1.3-1.4-1.8c-0.6-0.5-1.3-0.9-2.2-1.2
		s-1.8-0.4-2.8-0.4c-1.3,0-2.6,0.3-3.8,0.8c-1.2,0.5-2.4,1.3-3.5,2.3l2.3,2.8c0.9-0.8,1.7-1.4,2.4-1.7c0.7-0.3,1.5-0.5,2.4-0.5
		c0.9,0,1.6,0.2,2.1,0.7s0.8,1,0.8,1.7c0,0.5-0.2,1.1-0.5,1.5c-0.3,0.5-0.8,1-1.4,1.6l-7.3,6.4v2.9H89.3z"/>
	<path style="clip-path:url(#SVGID_00000113345233507148847720000011354273535759919233_);fill:#1D1D1B;" d="M24.6,83.7
		c-0.5-0.7-1.3-1.2-2.2-1.6c0.8-0.5,1.4-1,1.9-1.8c0.5-0.7,0.7-1.5,0.7-2.4c0-0.8-0.2-1.5-0.5-2.1c-0.3-0.6-0.8-1.2-1.4-1.6
		c-0.6-0.5-1.3-0.8-2.2-1.1c-0.9-0.3-1.8-0.4-2.8-0.4c-1.4,0-2.7,0.3-4.1,0.8c-1.3,0.6-2.4,1.3-3.3,2.3l2.9,2.6
		c0.8-0.8,1.5-1.3,2.1-1.6c0.6-0.3,1.4-0.5,2.3-0.5c0.9,0,1.5,0.2,2.1,0.6c0.5,0.4,0.8,0.9,0.8,1.4c0,0.7-0.3,1.2-0.8,1.6
		s-1.3,0.6-2.1,0.6h-1.3V84h1.7c0.9,0,1.7,0.2,2.2,0.5c0.5,0.3,0.8,0.7,0.8,1.3c0,0.6-0.3,1.2-0.9,1.5c-0.6,0.4-1.4,0.6-2.4,0.6
		c-1,0-1.8-0.1-2.5-0.4c-0.7-0.3-1.4-0.8-2-1.5l-2.8,2.6c0.9,0.9,1.9,1.6,3.2,2.2s2.7,0.8,4.2,0.8c1.1,0,2.1-0.1,3-0.4
		c0.9-0.3,1.7-0.6,2.4-1.1c0.7-0.5,1.2-1,1.6-1.7c0.4-0.7,0.6-1.4,0.6-2.2C25.4,85.2,25.1,84.4,24.6,83.7"/>
</g>
</svg>
