<?xml version="1.0" encoding="utf-8"?>
<!-- Generator: Adobe Illustrator 26.0.1, SVG Export Plug-In . SVG Version: 6.00 Build 0)  -->
<svg version="1.1" id="Layer_1" xmlns="http://www.w3.org/2000/svg" xmlns:xlink="http://www.w3.org/1999/xlink" x="0px" y="0px"
	 viewBox="0 0 100 100" style="enable-background:new 0 0 100 100;" xml:space="preserve">
<style type="text/css">
	.st0{clip-path:url(#SVGID_00000137827169436313796760000008731942886921838994_);fill:#1D1D1B;}
	.st1{clip-path:url(#SVGID_00000137827169436313796760000008731942886921838994_);fill:#FFFFFF;}
	.st2{fill:#FFFFFF;}
	.st3{clip-path:url(#SVGID_00000052794194471522597820000001445050537122789510_);fill:#FFFFFF;}
	.st4{clip-path:url(#SVGID_00000011015117277394731650000000059395056673580953_);fill:#FFFFFF;}
	.st5{fill:#E33A11;}
</style>
<g>
	<defs>
		<rect id="SVGID_1_" width="100" height="100"/>
	</defs>
	<clipPath id="SVGID_00000085960716097243731480000000809167066689199270_">
		<use xlink:href="#SVGID_1_"  style="overflow:visible;"/>
	</clipPath>
	<path style="clip-path:url(#SVGID_00000085960716097243731480000000809167066689199270_);fill:#1D1D1B;" d="M5.3,0
		C2.4,0,0,2.4,0,5.3v89.3c0,2.9,2.4,5.3,5.3,5.3h89.3c2.9,0,5.3-2.4,5.3-5.3V5.3c0-2.9-2.4-5.3-5.3-5.3H5.3z"/>
	<path style="clip-path:url(#SVGID_00000085960716097243731480000000809167066689199270_);fill:#FFFFFF;" d="M6.9,3.4
		C5,3.4,3.4,5,3.4,6.9v25.5h29.1V3.4H6.9z"/>
</g>
<rect x="3.4" y="35.5" class="st2" width="29.1" height="29.1"/>
<g>
	<defs>
		<rect id="SVGID_00000132804145095381401270000016811783488832571305_" width="100" height="100"/>
	</defs>
	<clipPath id="SVGID_00000026850716801591579120000011118414725650880428_">
		<use xlink:href="#SVGID_00000132804145095381401270000016811783488832571305_"  style="overflow:visible;"/>
	</clipPath>
	<path style="clip-path:url(#SVGID_00000026850716801591579120000011118414725650880428_);fill:#FFFFFF;" d="M3.4,67.6V94
		c0,1.5,1.2,2.7,2.7,2.7h26.4V67.6H3.4z"/>
	<path style="clip-path:url(#SVGID_00000026850716801591579120000011118414725650880428_);fill:#FFFFFF;" d="M67.6,3.4v29.1h29.1V6
		c0-1.5-1.2-2.7-2.7-2.7H67.6z"/>
</g>
<rect x="67.6" y="35.5" class="st2" width="29.1" height="29.1"/>
<g>
	<defs>
		<rect id="SVGID_00000100366505251922429380000000545220967591233456_" width="100" height="100"/>
	</defs>
	<clipPath id="SVGID_00000012468864212341225340000002497932148583693992_">
		<use xlink:href="#SVGID_00000100366505251922429380000000545220967591233456_"  style="overflow:visible;"/>
	</clipPath>
	<path style="clip-path:url(#SVGID_00000012468864212341225340000002497932148583693992_);fill:#FFFFFF;" d="M67.6,67.6v29.1H94
		c1.5,0,2.7-1.2,2.7-2.7V67.6H67.6z"/>
</g>
<rect x="35.5" y="3.4" class="st2" width="29.1" height="29.1"/>
<rect x="45.2" y="13.1" class="st5" width="9.7" height="9.7"/>
<rect x="35.5" y="35.5" class="st2" width="29.1" height="29.1"/>
<rect x="35.5" y="35.5" class="st5" width="9.7" height="9.7"/>
<rect x="45.2" y="54.8" class="st5" width="9.7" height="9.7"/>
<rect x="45.2" y="35.5" class="st5" width="9.7" height="9.7"/>
<rect x="45.2" y="45.2" class="st5" width="9.7" height="9.7"/>
<rect x="35.5" y="67.6" class="st2" width="29.1" height="29.1"/>
<rect x="35.5" y="77.3" class="st5" width="9.7" height="9.7"/>
<rect x="54.8" y="77.3" class="st5" width="9.7" height="9.7"/>
<rect x="45.2" y="67.6" class="st5" width="9.7" height="9.7"/>
<rect x="45.2" y="77.3" class="st5" width="9.7" height="9.7"/>
</svg>
