<?xml version="1.0" encoding="utf-8"?>
<!-- Generator: Adobe Illustrator 26.3.1, SVG Export Plug-In . SVG Version: 6.00 Build 0)  -->
<svg version="1.1" id="Layer_1" xmlns="http://www.w3.org/2000/svg" xmlns:xlink="http://www.w3.org/1999/xlink" x="0px" y="0px"
	 viewBox="0 0 74 74" style="enable-background:new 0 0 74 74;" xml:space="preserve">
<style type="text/css">
	.st0{clip-path:url(#SVGID_00000047019936299251764130000002258110583961194938_);fill:#FFFFFF;}
	.st1{clip-path:url(#SVGID_00000047019936299251764130000002258110583961194938_);fill:none;stroke:#1D1D1B;stroke-width:2;}
	.st2{fill:#FFFFFF;}
	.st3{clip-path:url(#SVGID_00000048469241494771928300000006781815234065356419_);fill:none;stroke:#1D1D1B;stroke-width:2;}
	.st4{fill:none;stroke:#1D1D1B;stroke-width:2;}
	.st5{clip-path:url(#SVGID_00000100365771000388088590000012318244706094067120_);fill:none;stroke:#1D1D1B;stroke-width:2;}
	.st6{clip-path:url(#SVGID_00000141440054466648103850000008875509550959525808_);fill:none;stroke:#1D1D1B;stroke-width:2;}
	.st7{clip-path:url(#SVGID_00000075141422079237552020000008154126555806774407_);fill:none;stroke:#1D1D1B;stroke-width:2;}
	.st8{clip-path:url(#SVGID_00000119815599090558283640000013797852566368899242_);fill:none;stroke:#1D1D1B;stroke-width:2;}
	.st9{clip-path:url(#SVGID_00000173129677587879232630000015924079576951946419_);fill:none;stroke:#1D1D1B;stroke-width:2;}
	.st10{clip-path:url(#SVGID_00000181047751082008967650000007142967902340923311_);fill:none;stroke:#1D1D1B;stroke-width:2;}
	.st11{clip-path:url(#SVGID_00000176729010315901440830000010741030436918032026_);fill:none;stroke:#1D1D1B;stroke-width:2;}
	.st12{clip-path:url(#SVGID_00000176729010315901440830000010741030436918032026_);fill:#FFFFFF;}
</style>
<g>
	<defs>
		<rect id="SVGID_1_" width="74" height="74"/>
	</defs>
	<clipPath id="SVGID_00000150811961400029383770000009888363995290357950_">
		<use xlink:href="#SVGID_1_"  style="overflow:visible;"/>
	</clipPath>
	<path style="clip-path:url(#SVGID_00000150811961400029383770000009888363995290357950_);fill:#FFFFFF;" d="M3,1C1.9,1,1,1.9,1,3
		v10h12V1H3z"/>
	
		<path style="clip-path:url(#SVGID_00000150811961400029383770000009888363995290357950_);fill:none;stroke:#1D1D1B;stroke-width:2;" d="
		M3,1C1.9,1,1,1.9,1,3v10h12V1H3z"/>
	<path style="clip-path:url(#SVGID_00000150811961400029383770000009888363995290357950_);fill:#FFFFFF;" d="M73,3c0-1.1-0.9-2-2-2
		H61v12h12V3z"/>
	
		<path style="clip-path:url(#SVGID_00000150811961400029383770000009888363995290357950_);fill:none;stroke:#1D1D1B;stroke-width:2;" d="
		M73,3c0-1.1-0.9-2-2-2H61v12h12V3z"/>
</g>
<rect x="16" y="1" class="st2" width="12" height="12"/>
<g>
	<defs>
		<rect id="SVGID_00000070118370628051943100000005689705167751256252_" width="74" height="74"/>
	</defs>
	<clipPath id="SVGID_00000098927995299177625730000010328556101418753470_">
		<use xlink:href="#SVGID_00000070118370628051943100000005689705167751256252_"  style="overflow:visible;"/>
	</clipPath>
	
		<rect x="16" y="1" style="clip-path:url(#SVGID_00000098927995299177625730000010328556101418753470_);fill:none;stroke:#1D1D1B;stroke-width:2;" width="12" height="12"/>
</g>
<rect x="16" y="16" class="st2" width="12" height="12"/>
<rect x="16" y="16" class="st4" width="12" height="12"/>
<rect x="46" y="16" class="st2" width="12" height="12"/>
<rect x="46" y="16" class="st4" width="12" height="12"/>
<rect x="16" y="31" class="st2" width="12" height="12"/>
<rect x="16" y="31" class="st4" width="12" height="12"/>
<rect x="1" y="31" class="st2" width="12" height="12"/>
<g>
	<defs>
		<rect id="SVGID_00000182488753351454032410000004648987198022164158_" width="74" height="74"/>
	</defs>
	<clipPath id="SVGID_00000107563555522052994590000017125080946268265391_">
		<use xlink:href="#SVGID_00000182488753351454032410000004648987198022164158_"  style="overflow:visible;"/>
	</clipPath>
	
		<rect x="1" y="31" style="clip-path:url(#SVGID_00000107563555522052994590000017125080946268265391_);fill:none;stroke:#1D1D1B;stroke-width:2;" width="12" height="12"/>
</g>
<rect x="31" y="31" class="st2" width="12" height="12"/>
<rect x="31" y="31" class="st4" width="12" height="12"/>
<rect x="46" y="31" class="st2" width="12" height="12"/>
<rect x="46" y="31" class="st4" width="12" height="12"/>
<rect x="61" y="31" class="st2" width="12" height="12"/>
<g>
	<defs>
		<rect id="SVGID_00000111882512178839143450000017820796995247653021_" width="74" height="74"/>
	</defs>
	<clipPath id="SVGID_00000051375507054663115010000009110542010899521192_">
		<use xlink:href="#SVGID_00000111882512178839143450000017820796995247653021_"  style="overflow:visible;"/>
	</clipPath>
	
		<rect x="61" y="31" style="clip-path:url(#SVGID_00000051375507054663115010000009110542010899521192_);fill:none;stroke:#1D1D1B;stroke-width:2;" width="12" height="12"/>
</g>
<rect x="16" y="46" class="st2" width="12" height="12"/>
<rect x="16" y="46" class="st4" width="12" height="12"/>
<rect x="16" y="61" class="st2" width="12" height="12"/>
<g>
	<defs>
		<rect id="SVGID_00000162349544006466679020000008557451410280209036_" width="74" height="74"/>
	</defs>
	<clipPath id="SVGID_00000082349675217636027760000006197666918922609590_">
		<use xlink:href="#SVGID_00000162349544006466679020000008557451410280209036_"  style="overflow:visible;"/>
	</clipPath>
	
		<rect x="16" y="61" style="clip-path:url(#SVGID_00000082349675217636027760000006197666918922609590_);fill:none;stroke:#1D1D1B;stroke-width:2;" width="12" height="12"/>
</g>
<rect x="31" y="1" class="st2" width="12" height="12"/>
<g>
	<defs>
		<rect id="SVGID_00000140693026566481532820000004017038407776483469_" width="74" height="74"/>
	</defs>
	<clipPath id="SVGID_00000039825074697166441160000000387515201311838650_">
		<use xlink:href="#SVGID_00000140693026566481532820000004017038407776483469_"  style="overflow:visible;"/>
	</clipPath>
	
		<rect x="31" y="1" style="clip-path:url(#SVGID_00000039825074697166441160000000387515201311838650_);fill:none;stroke:#1D1D1B;stroke-width:2;" width="12" height="12"/>
</g>
<rect x="31" y="61" class="st2" width="12" height="12"/>
<g>
	<defs>
		<rect id="SVGID_00000056426054078672260070000008150892292486893712_" width="74" height="74"/>
	</defs>
	<clipPath id="SVGID_00000065075551455620884590000008533807468760252294_">
		<use xlink:href="#SVGID_00000056426054078672260070000008150892292486893712_"  style="overflow:visible;"/>
	</clipPath>
	
		<rect x="31" y="61" style="clip-path:url(#SVGID_00000065075551455620884590000008533807468760252294_);fill:none;stroke:#1D1D1B;stroke-width:2;" width="12" height="12"/>
</g>
<rect x="46" y="1" class="st2" width="12" height="12"/>
<g>
	<defs>
		<rect id="SVGID_00000024700216353048248280000014362684433187818134_" width="74" height="74"/>
	</defs>
	<clipPath id="SVGID_00000134950211796429162160000011003573042724094642_">
		<use xlink:href="#SVGID_00000024700216353048248280000014362684433187818134_"  style="overflow:visible;"/>
	</clipPath>
	
		<rect x="46" y="1" style="clip-path:url(#SVGID_00000134950211796429162160000011003573042724094642_);fill:none;stroke:#1D1D1B;stroke-width:2;" width="12" height="12"/>
</g>
<rect x="61" y="46" class="st2" width="12" height="12"/>
<g>
	<defs>
		<rect id="SVGID_00000144309640764954798520000013893155422813149584_" width="74" height="74"/>
	</defs>
	<clipPath id="SVGID_00000101784219173315097050000012239629924247877040_">
		<use xlink:href="#SVGID_00000144309640764954798520000013893155422813149584_"  style="overflow:visible;"/>
	</clipPath>
	
		<rect x="61" y="46" style="clip-path:url(#SVGID_00000101784219173315097050000012239629924247877040_);fill:none;stroke:#1D1D1B;stroke-width:2;" width="12" height="12"/>
	<path style="clip-path:url(#SVGID_00000101784219173315097050000012239629924247877040_);fill:#FFFFFF;" d="M61,61v12h10
		c1.1,0,2-0.9,2-2V61H61z"/>
	
		<path style="clip-path:url(#SVGID_00000101784219173315097050000012239629924247877040_);fill:none;stroke:#1D1D1B;stroke-width:2;" d="
		M61,61v12h10c1.1,0,2-0.9,2-2V61H61z"/>
	<path style="clip-path:url(#SVGID_00000101784219173315097050000012239629924247877040_);fill:#FFFFFF;" d="M13,61H1v10
		c0,1.1,0.9,2,2,2h10V61z"/>
	
		<path style="clip-path:url(#SVGID_00000101784219173315097050000012239629924247877040_);fill:none;stroke:#1D1D1B;stroke-width:2;" d="
		M13,61H1v10c0,1.1,0.9,2,2,2h10V61z"/>
</g>
</svg>
