<?xml version="1.0" encoding="utf-8"?>
<!-- Generator: Adobe Illustrator 26.0.1, SVG Export Plug-In . SVG Version: 6.00 Build 0)  -->
<svg version="1.1" id="Layer_1" xmlns="http://www.w3.org/2000/svg" xmlns:xlink="http://www.w3.org/1999/xlink" x="0px" y="0px"
	 viewBox="0 0 100 100" style="enable-background:new 0 0 100 100;" xml:space="preserve">
<style type="text/css">
	.st0{clip-path:url(#SVGID_00000008108605885364382010000003604893615537035151_);fill:#1D1D1B;}
	.st1{clip-path:url(#SVGID_00000008108605885364382010000003604893615537035151_);fill:#FFFFFF;}
	.st2{fill:#FFFFFF;}
	.st3{clip-path:url(#SVGID_00000003105466280041918490000010139601652863119767_);fill:#FFFFFF;}
	.st4{clip-path:url(#SVGID_00000022557827660917663790000014990248702755646380_);fill:#FFFFFF;}
	.st5{clip-path:url(#SVGID_00000137093255285680383380000017727382530828514228_);fill:#FFFFFF;}
	.st6{fill:#1D1D1B;}
	.st7{clip-path:url(#SVGID_00000083770404915454919620000000202213826659459250_);fill:#1D1D1B;}
</style>
<g>
	<defs>
		<rect id="SVGID_1_" width="100" height="100"/>
	</defs>
	<clipPath id="SVGID_00000103260794688802798770000004460207636696161705_">
		<use xlink:href="#SVGID_1_"  style="overflow:visible;"/>
	</clipPath>
	<path style="clip-path:url(#SVGID_00000103260794688802798770000004460207636696161705_);fill:#1D1D1B;" d="M5.4,0
		C2.4,0,0,2.4,0,5.4v89.2c0,3,2.4,5.4,5.4,5.4h89.2c3,0,5.4-2.4,5.4-5.4V5.4c0-3-2.4-5.4-5.4-5.4H5.4z"/>
	<path style="clip-path:url(#SVGID_00000103260794688802798770000004460207636696161705_);fill:#FFFFFF;" d="M7,3.4
		C5,3.4,3.4,5,3.4,7v25.4h29v-29H7z"/>
</g>
<rect x="3.4" y="35.5" class="st2" width="29" height="29"/>
<g>
	<defs>
		<rect id="SVGID_00000015332966369991986740000012047871040781030293_" width="100" height="100"/>
	</defs>
	<clipPath id="SVGID_00000084489108925221983660000007073754124894878363_">
		<use xlink:href="#SVGID_00000015332966369991986740000012047871040781030293_"  style="overflow:visible;"/>
	</clipPath>
	<path style="clip-path:url(#SVGID_00000084489108925221983660000007073754124894878363_);fill:#FFFFFF;" d="M3.4,67.6v26.3
		c0,1.5,1.2,2.7,2.7,2.7h26.3v-29H3.4z"/>
</g>
<rect x="35.5" y="3.4" class="st2" width="29" height="29"/>
<rect x="35.5" y="67.6" class="st2" width="29" height="29"/>
<g>
	<defs>
		<rect id="SVGID_00000054971821720419607080000000366683521531475081_" width="100" height="100"/>
	</defs>
	<clipPath id="SVGID_00000075867687076108855200000013518264475809093561_">
		<use xlink:href="#SVGID_00000054971821720419607080000000366683521531475081_"  style="overflow:visible;"/>
	</clipPath>
	<path style="clip-path:url(#SVGID_00000075867687076108855200000013518264475809093561_);fill:#FFFFFF;" d="M67.6,3.4v29h29V6.1
		c0-1.5-1.2-2.7-2.7-2.7H67.6z"/>
</g>
<rect x="67.6" y="35.5" class="st2" width="29" height="29"/>
<g>
	<defs>
		<rect id="SVGID_00000021811045361822553330000013386776402443618182_" width="100" height="100"/>
	</defs>
	<clipPath id="SVGID_00000120530976889834559430000010093619979992571053_">
		<use xlink:href="#SVGID_00000021811045361822553330000013386776402443618182_"  style="overflow:visible;"/>
	</clipPath>
	<path style="clip-path:url(#SVGID_00000120530976889834559430000010093619979992571053_);fill:#FFFFFF;" d="M67.6,67.6v29h26.3
		c1.5,0,2.7-1.2,2.7-2.7V67.6H67.6z"/>
</g>
<rect x="35.5" y="35.5" class="st2" width="29" height="29"/>
<polygon class="st6" points="49.7,27 57.5,11.9 57.5,8.8 42.5,8.8 42.5,12.4 52.7,12.4 44.7,27 "/>
<g>
	<defs>
		<rect id="SVGID_00000018216382454971355250000005520148509027623844_" width="100" height="100"/>
	</defs>
	<clipPath id="SVGID_00000015313576950885489020000008734661956313231004_">
		<use xlink:href="#SVGID_00000018216382454971355250000005520148509027623844_"  style="overflow:visible;"/>
	</clipPath>
	<path style="clip-path:url(#SVGID_00000015313576950885489020000008734661956313231004_);fill:#1D1D1B;" d="M79.8,55.3
		c-0.6-0.4-0.9-1-0.9-1.6s0.3-1.2,0.9-1.6c0.6-0.4,1.4-0.6,2.3-0.6c0.9,0,1.7,0.2,2.3,0.6c0.6,0.4,0.9,1,0.9,1.6s-0.3,1.2-0.9,1.6
		c-0.6,0.4-1.4,0.6-2.3,0.6C81.2,56,80.4,55.8,79.8,55.3 M80.1,47.7c-0.5-0.4-0.8-0.9-0.8-1.5c0-0.6,0.3-1.1,0.8-1.5
		c0.5-0.4,1.2-0.6,2-0.6c0.8,0,1.5,0.2,2,0.6c0.5,0.4,0.8,0.9,0.8,1.5c0,0.6-0.3,1.1-0.8,1.5c-0.5,0.4-1.2,0.6-2,0.6
		C81.3,48.3,80.7,48.1,80.1,47.7 M85.2,59c0.9-0.3,1.7-0.6,2.4-1.1c0.7-0.5,1.2-1,1.5-1.7c0.4-0.7,0.5-1.4,0.5-2.2
		c0-0.9-0.3-1.7-0.8-2.4c-0.5-0.7-1.2-1.3-2.1-1.7c0.7-0.4,1.3-1,1.7-1.7c0.4-0.7,0.6-1.4,0.6-2.3c0-0.7-0.2-1.4-0.5-2.1
		c-0.4-0.7-0.8-1.2-1.5-1.7c-0.6-0.5-1.4-0.8-2.2-1.1c-0.9-0.3-1.8-0.4-2.8-0.4c-1,0-1.9,0.1-2.7,0.4c-0.9,0.3-1.6,0.6-2.2,1.1
		c-0.6,0.5-1.1,1-1.4,1.7c-0.4,0.7-0.5,1.4-0.5,2.1c0,0.8,0.2,1.6,0.6,2.3c0.4,0.7,1,1.2,1.7,1.7c-0.9,0.4-1.5,1-2.1,1.7
		c-0.5,0.7-0.8,1.6-0.8,2.4c0,0.8,0.2,1.5,0.5,2.2c0.4,0.7,0.9,1.2,1.5,1.7c0.7,0.5,1.4,0.8,2.4,1.1c0.9,0.3,1.9,0.4,3,0.4
		C83.2,59.4,84.2,59.3,85.2,59"/>
	<path style="clip-path:url(#SVGID_00000015313576950885489020000008734661956313231004_);fill:#1D1D1B;" d="M15.1,80.4
		c-0.5-0.4-0.8-1-0.8-1.7c0-0.7,0.3-1.3,0.9-1.7c0.6-0.5,1.3-0.7,2.2-0.7c0.9,0,1.6,0.3,2.2,0.8c0.6,0.6,1.1,1.3,1.4,2.2
		c-0.5,0.6-1.1,1-1.7,1.3S18,81,17.3,81C16.4,81,15.7,80.8,15.1,80.4 M14.4,73.2c-0.9,0.3-1.6,0.7-2.2,1.3c-0.6,0.5-1.1,1.2-1.5,1.9
		c-0.4,0.7-0.5,1.5-0.5,2.4c0,0.8,0.2,1.6,0.5,2.3c0.3,0.7,0.8,1.3,1.3,1.8c0.6,0.5,1.2,0.9,2,1.1c0.8,0.3,1.6,0.4,2.6,0.4
		c0.9,0,1.8-0.2,2.6-0.5c0.8-0.3,1.5-0.8,2.1-1.4c-0.1,1.8-0.6,3.1-1.3,4.1c-0.8,0.9-1.9,1.4-3.3,1.4c-0.7,0-1.4-0.1-2-0.3
		c-0.6-0.2-1.1-0.5-1.7-1l-2.5,3c0.7,0.6,1.5,1.1,2.6,1.4c1.1,0.4,2.1,0.6,3.2,0.6c1.4,0,2.6-0.2,3.8-0.7c1.1-0.5,2.1-1.1,2.9-2
		c0.8-0.8,1.4-1.9,1.9-3.1c0.4-1.2,0.7-2.5,0.7-4c0-1.4-0.2-2.6-0.6-3.7c-0.4-1.1-1-2.1-1.7-2.9c-0.7-0.8-1.6-1.4-2.6-1.9
		c-1-0.4-2.2-0.7-3.4-0.7C16.2,72.7,15.3,72.9,14.4,73.2"/>
</g>
</svg>
