<?xml version="1.0" encoding="utf-8"?>
<!-- Generator: Adobe Illustrator 26.3.1, SVG Export Plug-In . SVG Version: 6.00 Build 0)  -->
<svg version="1.1" id="Layer_1" xmlns="http://www.w3.org/2000/svg" xmlns:xlink="http://www.w3.org/1999/xlink" x="0px" y="0px"
	 viewBox="0 0 74 74" style="enable-background:new 0 0 74 74;" xml:space="preserve">
<style type="text/css">
	.st0{clip-path:url(#SVGID_00000172436276756957577370000013512453984952799125_);fill:#1D1D1B;}
	.st1{clip-path:url(#SVGID_00000172436276756957577370000013512453984952799125_);fill:#FFFFFF;}
	.st2{fill:none;stroke:#1D1D1B;stroke-width:3;stroke-linecap:round;stroke-linejoin:round;}
	.st3{clip-path:url(#SVGID_00000111157292765447435030000014531512552662523803_);fill:#FFFFFF;}
	.st4{clip-path:url(#SVGID_00000111157292765447435030000014531512552662523803_);fill:none;stroke:#1D1D1B;stroke-width:2.5;}
</style>
<g>
	<defs>
		<rect id="SVGID_1_" width="74" height="74"/>
	</defs>
	<clipPath id="SVGID_00000068659998562274020940000003499099992896376767_">
		<use xlink:href="#SVGID_1_"  style="overflow:visible;"/>
	</clipPath>
	<path style="clip-path:url(#SVGID_00000068659998562274020940000003499099992896376767_);fill:#1D1D1B;" d="M4,0C1.8,0,0,1.8,0,4
		v66c0,2.2,1.8,4,4,4h66c2.2,0,4-1.8,4-4V4c0-2.2-1.8-4-4-4H4z"/>
	<path style="clip-path:url(#SVGID_00000068659998562274020940000003499099992896376767_);fill:#FFFFFF;" d="M71.5,69.5v-65
		c0-1.1-0.9-2-2-2H5.2c-1.5,0-2.7,1.2-2.7,2.7v64.3c0,1.1,0.9,2,2,2h65C70.6,71.5,71.5,70.6,71.5,69.5"/>
</g>
<line class="st2" x1="28.7" y1="9.8" x2="28.7" y2="13.8"/>
<g>
	<defs>
		<rect id="SVGID_00000176005062389650251080000016797198810986250165_" width="74" height="74"/>
	</defs>
	<clipPath id="SVGID_00000116196738305017360460000013150024878797811375_">
		<use xlink:href="#SVGID_00000176005062389650251080000016797198810986250165_"  style="overflow:visible;"/>
	</clipPath>
	<path style="clip-path:url(#SVGID_00000116196738305017360460000013150024878797811375_);fill:#FFFFFF;" d="M28.7,27.4
		c3.3,0,6-2.7,6-6c0-3.3-2.7-6-6-6s-6,2.7-6,6C22.7,24.7,25.4,27.4,28.7,27.4"/>
	
		<path style="clip-path:url(#SVGID_00000116196738305017360460000013150024878797811375_);fill:none;stroke:#1D1D1B;stroke-width:2.5;" d="
		M28.7,27.4c3.3,0,6-2.7,6-6c0-3.3-2.7-6-6-6s-6,2.7-6,6C22.7,24.7,25.4,27.4,28.7,27.4z"/>
</g>
<line class="st2" x1="28.7" y1="28.5" x2="28.7" y2="42.7"/>
<line class="st2" x1="39.6" y1="31.6" x2="17.8" y2="31.6"/>
<polyline class="st2" points="17.8,56.6 28.7,42 39.6,56.6 "/>
<line class="st2" x1="7.5" y1="65.5" x2="66.5" y2="65.5"/>
<polyline class="st2" points="17.8,8.5 56.2,8.5 56.2,65.5 "/>
<line class="st2" x1="41.6" y1="8.5" x2="56.2" y2="23.1"/>
</svg>
