<?xml version="1.0" encoding="utf-8"?>
<!-- Generator: Adobe Illustrator 26.0.1, SVG Export Plug-In . SVG Version: 6.00 Build 0)  -->
<svg version="1.1" id="Layer_1" xmlns="http://www.w3.org/2000/svg" xmlns:xlink="http://www.w3.org/1999/xlink" x="0px" y="0px"
	 viewBox="0 0 100 100" style="enable-background:new 0 0 100 100;" xml:space="preserve">
<style type="text/css">
	.st0{clip-path:url(#SVGID_00000027599398962752155800000005498843096932634505_);fill:#1D1D1B;}
	.st1{clip-path:url(#SVGID_00000027599398962752155800000005498843096932634505_);fill:#FFFFFF;}
	.st2{fill:#FFFFFF;}
	.st3{clip-path:url(#SVGID_00000106119232509342958100000006360566850246992289_);fill:#FFFFFF;}
	.st4{clip-path:url(#SVGID_00000031187023593183855380000016164420103080928159_);fill:#FFFFFF;}
	.st5{clip-path:url(#SVGID_00000080889531363308965920000016129588445677169558_);fill:#FFFFFF;}
	.st6{fill:#1D1D1B;}
	.st7{clip-path:url(#SVGID_00000062873179127484766220000002793350440939213707_);fill:#1D1D1B;}
</style>
<g>
	<defs>
		<rect id="SVGID_1_" width="100" height="100"/>
	</defs>
	<clipPath id="SVGID_00000137101801205766296440000016455102556296157824_">
		<use xlink:href="#SVGID_1_"  style="overflow:visible;"/>
	</clipPath>
	<path style="clip-path:url(#SVGID_00000137101801205766296440000016455102556296157824_);fill:#1D1D1B;" d="M5.4,0
		C2.4,0,0,2.4,0,5.4v89.2c0,3,2.4,5.4,5.4,5.4h89.2c3,0,5.4-2.4,5.4-5.4V5.4c0-3-2.4-5.4-5.4-5.4H5.4z"/>
	<path style="clip-path:url(#SVGID_00000137101801205766296440000016455102556296157824_);fill:#FFFFFF;" d="M7,3.4
		C5,3.4,3.4,5,3.4,7v25.4h29v-29H7z"/>
</g>
<rect x="3.4" y="35.5" class="st2" width="29" height="29"/>
<g>
	<defs>
		<rect id="SVGID_00000057146947694928225840000016315775431356275110_" width="100" height="100"/>
	</defs>
	<clipPath id="SVGID_00000049941613790908446160000013531137668826975915_">
		<use xlink:href="#SVGID_00000057146947694928225840000016315775431356275110_"  style="overflow:visible;"/>
	</clipPath>
	<path style="clip-path:url(#SVGID_00000049941613790908446160000013531137668826975915_);fill:#FFFFFF;" d="M3.4,67.6v26.3
		c0,1.5,1.2,2.7,2.7,2.7h26.3v-29H3.4z"/>
</g>
<rect x="35.5" y="3.4" class="st2" width="29" height="29"/>
<rect x="35.5" y="67.6" class="st2" width="29" height="29"/>
<g>
	<defs>
		<rect id="SVGID_00000111158047062235476330000003090505585417150126_" width="100" height="100"/>
	</defs>
	<clipPath id="SVGID_00000010304115567388917800000008526807500416885928_">
		<use xlink:href="#SVGID_00000111158047062235476330000003090505585417150126_"  style="overflow:visible;"/>
	</clipPath>
	<path style="clip-path:url(#SVGID_00000010304115567388917800000008526807500416885928_);fill:#FFFFFF;" d="M67.6,3.4v29h29V6.1
		c0-1.5-1.2-2.7-2.7-2.7H67.6z"/>
</g>
<rect x="67.6" y="35.5" class="st2" width="29" height="29"/>
<g>
	<defs>
		<rect id="SVGID_00000088815442511349895640000017536270546151102888_" width="100" height="100"/>
	</defs>
	<clipPath id="SVGID_00000081616764286348739740000003698487743051960753_">
		<use xlink:href="#SVGID_00000088815442511349895640000017536270546151102888_"  style="overflow:visible;"/>
	</clipPath>
	<path style="clip-path:url(#SVGID_00000081616764286348739740000003698487743051960753_);fill:#FFFFFF;" d="M67.6,67.6v29h26.3
		c1.5,0,2.7-1.2,2.7-2.7V67.6H67.6z"/>
</g>
<rect x="35.5" y="35.5" class="st2" width="29" height="29"/>
<path class="st6" d="M51.9,13.3v6.1h-5.4L51.9,13.3z M51.2,8.8l-9.6,10.8V23h10.3v4h4.2v-4h2.3v-3.5h-2.3V8.8H51.2z"/>
<g>
	<defs>
		<rect id="SVGID_00000168801864729628770410000001987901796618374802_" width="100" height="100"/>
	</defs>
	<clipPath id="SVGID_00000078032891590059220800000010418633160403418292_">
		<use xlink:href="#SVGID_00000168801864729628770410000001987901796618374802_"  style="overflow:visible;"/>
	</clipPath>
	<path style="clip-path:url(#SVGID_00000078032891590059220800000010418633160403418292_);fill:#1D1D1B;" d="M78.6,51.4
		c0.5-0.2,1-0.4,1.5-0.5c0.5-0.1,1.1-0.2,1.6-0.2c1,0,1.8,0.2,2.5,0.7c0.7,0.5,1,1.1,1,1.8c0,0.8-0.3,1.4-0.9,1.9
		c-0.6,0.5-1.4,0.7-2.4,0.7c-0.9,0-1.6-0.1-2.3-0.4s-1.4-0.7-2.2-1.4l-2.5,2.9c0.9,0.8,2,1.4,3.2,1.8c1.2,0.4,2.4,0.6,3.8,0.6
		c1.1,0,2.2-0.2,3.1-0.5c0.9-0.3,1.8-0.7,2.4-1.3c0.7-0.6,1.2-1.2,1.6-2c0.4-0.8,0.6-1.6,0.6-2.6c0-1.7-0.6-3-1.9-4.1
		c-1.2-1-2.9-1.5-4.9-1.5c-0.6,0-1.2,0-1.7,0.1c-0.5,0.1-1.1,0.2-1.6,0.4l0.2-3.6h8.8v-3.5H76.2l-0.4,9.8L78.6,51.4z"/>
	<path style="clip-path:url(#SVGID_00000078032891590059220800000010418633160403418292_);fill:#1D1D1B;" d="M20.6,83.9
		c0.5,0.4,0.8,1,0.8,1.7s-0.3,1.3-0.9,1.7c-0.6,0.5-1.3,0.7-2.2,0.7c-0.9,0-1.6-0.3-2.2-0.8c-0.6-0.6-1.1-1.3-1.4-2.2
		c0.5-0.6,1.1-1,1.7-1.3c0.6-0.3,1.3-0.4,2.1-0.4C19.4,83.2,20.1,83.4,20.6,83.9 M21.3,91.1c0.9-0.3,1.6-0.7,2.2-1.3
		c0.6-0.5,1.1-1.2,1.5-1.9c0.4-0.7,0.5-1.5,0.5-2.4c0-0.8-0.2-1.6-0.5-2.3c-0.3-0.7-0.8-1.3-1.3-1.8c-0.6-0.5-1.2-0.9-2-1.1
		s-1.6-0.4-2.6-0.4s-1.8,0.2-2.6,0.5c-0.8,0.3-1.5,0.8-2.1,1.4c0.1-1.8,0.6-3.1,1.3-4.1c0.8-0.9,1.9-1.4,3.3-1.4
		c0.7,0,1.4,0.1,2,0.3c0.6,0.2,1.1,0.5,1.7,1l2.5-3c-0.7-0.6-1.5-1.1-2.6-1.4c-1.1-0.4-2.1-0.6-3.2-0.6c-1.4,0-2.6,0.2-3.8,0.7
		s-2.1,1.1-2.9,2c-0.8,0.8-1.4,1.9-1.9,3.1c-0.4,1.2-0.7,2.5-0.7,4c0,1.4,0.2,2.6,0.6,3.7c0.4,1.1,1,2.1,1.7,2.9
		c0.7,0.8,1.6,1.4,2.6,1.9c1,0.4,2.2,0.7,3.4,0.7C19.5,91.5,20.5,91.4,21.3,91.1"/>
</g>
</svg>
